<svg viewBox="0 0 300 300" width="300px" height="300px" xmlns="http://www.w3.org/2000/svg">
  <defs></defs>
  <path style="fill: none; stroke: rgb(21, 91, 83); stroke-width: 5px;" d="M 151.688 2.101 L 20.926 79.353 C 20.926 79.353 20.235 216.914 20.461 216.914 C 20.687 216.914 148.807 298.355 148.807 298.355 L 280.2 221.303 L 279.804 73.476 L 151.688 2.101 Z"></path>
  <path style="fill: none; stroke: rgb(20, 90, 82); stroke-width: 5px;" d="M 85.352 245.438 C 89.294 249.005 103.73 225.132 95.333 217.535 C 86.033 210.172 101.5 181.729 106.41 185.616 L 129.417 201.001 C 140.507 212.884 92.51 252.346 85.352 245.438 Z"></path>
  <path style="fill: none; stroke: rgb(20, 90, 82); stroke-width: 5px; stroke-linejoin: round; stroke-linecap: round;" d="M 109.673 176.301 C 109.673 176.301 117.032 158.852 121.448 157.072 C 125.864 155.292 151.115 171.419 147.978 173.415 L 136.323 192.057 C 133.93 194.792 107.851 178.384 109.673 176.301 Z"></path>
  <path style="stroke-linecap: round; fill: none; stroke-width: 5px; stroke-linejoin: round; stroke: rgb(20, 90, 82);" d="M 125.429 148.766 C 156.577 91.616 210.936 33.202 205.301 43.54 C 208.063 56.041 159.642 166.972 152.896 163.252 C 146.15 159.532 125.882 151.629 125.429 148.766 Z"></path>
  <path style="fill: rgb(20, 90, 82);" d="M 94.245 251.426 C 93.92 252.582 130.024 268.753 138.685 267.3 C 148.739 265.614 171.157 262.109 174.93 259.329 C 179.023 256.371 179.766 235.592 179.558 235.592 C 181.951 232.8 160.816 220.706 158.516 212.87 C 157.425 203.491 174.325 188.254 174.326 188.26 C 176.959 184.614 212.473 187.339 217.794 186.347 C 223.22 185.378 259.885 171.89 259.234 172.006 C 259.817 172.14 227.437 197.493 220.114 199.331 C 212.791 201.169 189.811 196.182 182.409 200.678 C 179.75 200.478 174.193 207.283 175.393 212.022 C 176.397 217.592 195.82 235.59 194.108 235.885 C 195.782 236.257 192.273 262.391 188.509 265.285 C 184.745 268.179 151.954 281.035 142.306 281.718 C 132.658 282.401 94.003 252.018 94.245 251.426 Z"></path>
</svg>