<svg id="svg" version="1.1" xmlns="http://www.w3.org/2000/svg" xmlns:xlink="http://www.w3.org/1999/xlink" width="400" height="400" viewBox="0, 0, 400, 400"><g id="svgg">
<rect id="rect1" x="10" y="10" width="380" height="380" fill="#FFFFFF"></rect>
<path id="path1" d="M19.580 3.671 C 12.824 5.488,7.233 11.771,6.141 18.774 C 5.467 23.096,5.624 374.261,6.302 377.457 C 7.878 384.897,13.467 390.649,20.586 392.157 C 24.464 392.979,376.650 392.987,380.526 392.165 C 387.535 390.680,393.053 385.489,394.815 378.722 C 395.569 375.828,395.726 21.118,394.975 17.548 C 393.613 11.070,388.101 5.363,381.511 3.609 C 378.427 2.788,22.637 2.849,19.580 3.671 M227.203 28.530 C 231.944 28.830,236.513 29.166,237.356 29.278 C 238.199 29.390,240.441 29.675,242.337 29.910 C 252.679 31.192,268.008 34.345,278.402 37.329 C 284.574 39.101,288.358 40.353,299.521 44.321 L 301.149 44.900 301.149 88.733 C 301.149 112.842,301.079 132.567,300.994 132.567 C 300.908 132.567,298.796 131.555,296.300 130.317 C 269.021 116.794,236.381 108.824,208.227 108.814 C 186.382 108.807,175.985 115.719,176.718 129.764 C 177.340 141.669,186.780 148.272,218.774 159.184 C 259.045 172.919,275.191 180.751,290.150 193.810 C 311.989 212.873,322.078 241.254,318.613 273.875 C 313.544 321.599,280.372 353.818,225.670 364.147 C 184.474 371.926,128.475 364.974,88.745 347.148 L 86.207 346.009 86.207 301.740 C 86.207 277.392,86.322 257.471,86.462 257.471 C 86.603 257.471,88.830 258.583,91.412 259.942 C 99.415 264.153,111.521 269.482,119.732 272.410 C 142.889 280.665,160.389 284.930,177.011 286.369 C 207.949 289.047,223.802 281.676,223.897 264.571 C 223.978 249.958,213.240 242.283,172.989 228.183 C 168.985 226.781,165.105 225.393,164.368 225.100 C 163.630 224.807,161.005 223.784,158.534 222.826 C 129.271 211.489,112.341 200.896,99.926 186.155 C 83.464 166.610,77.915 136.464,85.279 106.589 C 95.572 64.831,129.106 37.762,180.274 29.904 C 184.562 29.246,187.617 28.958,198.084 28.224 C 203.022 27.878,219.641 28.053,227.203 28.530 " stroke="none" fill="#6474ec" fill-rule="evenodd"></path></g></svg>