<svg xmlns="http://www.w3.org/2000/svg" width="375" height="400" viewBox="0 0 375 400" version="1.1" id="dragon">
			<path id="path0" d="M197.400 5.264 C 194.267 5.615,181.001 8.680,177.812 9.788 C 174.132 11.068,166.424 15.418,162.400 18.486 C 159.966 20.342,155.542 25.063,153.396 28.096 C 152.111 29.913,150.835 31.590,150.561 31.821 C 148.211 33.808,142.935 48.394,142.178 55.000 C 140.925 65.919,141.855 89.171,143.968 99.800 C 144.187 100.900,144.484 102.655,144.629 103.700 C 145.039 106.672,146.470 105.869,149.849 100.771 C 153.478 95.294,154.030 93.253,152.981 89.200 C 149.711 76.574,148.698 62.690,150.559 56.000 C 150.957 54.570,151.452 52.680,151.658 51.800 C 152.507 48.185,157.137 39.129,160.195 35.101 C 161.407 33.505,162.804 31.661,163.299 31.001 C 164.994 28.746,169.798 24.327,172.481 22.556 C 173.955 21.583,175.262 20.623,175.385 20.424 C 176.458 18.688,190.986 12.946,198.600 11.249 C 210.973 8.490,237.837 8.564,257.444 11.411 C 259.668 11.734,263.988 12.283,267.044 12.631 C 270.100 12.980,274.670 13.513,277.200 13.815 C 286.680 14.948,289.042 15.185,290.600 15.157 C 292.911 15.115,288.183 14.292,280.598 13.417 C 277.299 13.036,271.810 12.273,268.400 11.721 C 256.489 9.793,244.859 8.007,237.400 6.961 C 235.200 6.652,232.230 6.221,230.800 6.003 C 223.034 4.818,204.943 4.417,197.400 5.264 M254.400 23.635 C 251.870 24.045,249.080 24.543,248.200 24.742 C 247.320 24.942,244.890 25.486,242.800 25.952 C 229.693 28.876,216.410 33.834,208.800 38.643 C 207.370 39.547,205.660 40.564,205.000 40.903 C 204.340 41.242,203.341 41.945,202.781 42.466 C 202.221 42.986,201.031 43.949,200.139 44.606 C 196.455 47.315,193.444 50.065,189.718 54.120 C 184.478 59.822,180.178 67.424,178.190 74.500 C 177.453 77.120,176.225 77.728,175.767 75.700 C 174.977 72.208,173.704 68.594,172.208 65.600 C 171.273 63.730,170.193 61.570,169.808 60.800 C 169.104 59.392,163.749 53.930,161.511 52.336 L 160.310 51.481 160.555 53.441 C 162.269 67.173,160.517 90.462,157.088 99.541 C 155.293 104.294,148.551 112.698,143.000 117.103 C 142.120 117.801,140.680 119.014,139.800 119.797 C 137.888 121.499,138.330 121.150,133.393 124.852 C 131.197 126.499,128.320 128.557,127.000 129.425 L 124.600 131.002 124.741 132.801 C 125.144 137.949,124.921 143.890,124.237 146.200 C 122.556 151.880,121.986 153.217,118.614 159.400 C 112.881 169.909,104.578 178.198,96.800 181.177 C 94.930 181.893,93.220 182.618,93.000 182.787 C 92.475 183.191,88.403 184.155,87.479 184.094 C 86.573 184.034,86.159 185.027,86.778 185.773 C 90.325 190.047,85.273 207.588,79.384 211.447 C 78.443 212.064,78.399 212.276,78.384 216.346 C 78.353 224.793,74.639 237.337,70.279 243.723 C 68.967 245.645,69.924 245.446,72.110 243.341 C 73.259 242.235,75.100 240.631,76.200 239.777 C 77.300 238.923,78.935 237.589,79.832 236.812 C 83.392 233.732,85.505 231.960,87.806 230.122 C 89.129 229.065,92.099 226.640,94.406 224.733 C 106.503 214.733,111.872 212.573,122.018 213.623 C 128.674 214.312,132.346 216.368,134.412 220.564 L 135.698 223.176 137.584 221.288 C 138.622 220.250,139.994 218.680,140.633 217.800 C 141.272 216.920,141.896 216.110,142.019 216.000 C 142.511 215.559,148.400 206.556,148.400 206.245 C 148.400 206.152,149.014 204.990,149.765 203.663 C 152.512 198.802,152.863 196.245,151.400 191.761 C 150.180 188.025,150.170 187.527,151.268 185.259 C 152.800 182.095,164.633 170.833,168.826 168.549 C 170.336 167.726,182.474 167.438,186.526 168.128 C 189.919 168.707,191.813 165.497,192.623 157.800 C 193.469 149.764,197.187 146.828,203.474 149.230 C 208.303 151.076,211.467 150.724,217.173 147.707 C 225.768 143.164,229.006 140.661,229.362 138.284 C 229.468 137.578,229.754 135.625,229.999 133.944 C 231.158 125.980,233.169 124.000,240.099 124.000 C 250.936 124.000,262.042 127.922,271.290 135.015 C 281.787 143.066,288.514 156.824,290.057 173.400 C 290.731 180.631,290.161 194.797,288.967 200.500 C 288.529 202.590,289.493 201.590,290.701 198.700 C 297.108 183.372,298.622 161.739,294.989 137.400 C 293.428 126.946,293.218 127.105,302.790 131.494 C 324.357 141.384,333.765 164.131,328.189 192.903 C 327.005 199.013,326.974 199.706,328.013 196.800 C 332.422 184.473,334.463 159.395,332.085 146.766 C 328.760 129.110,322.815 120.136,308.344 110.930 C 303.724 107.991,293.932 104.112,287.777 102.784 C 286.043 102.409,282.801 101.684,281.600 101.402 C 281.270 101.325,280.865 101.247,280.700 101.231 C 279.544 101.113,280.543 99.600,281.777 99.600 C 284.326 99.600,296.582 101.172,298.600 101.758 C 316.960 107.087,333.756 105.062,343.263 96.373 C 346.108 93.773,346.261 93.038,343.589 94.807 C 331.260 102.970,306.768 98.719,294.211 86.238 C 286.587 78.661,283.840 77.397,270.800 75.468 C 266.899 74.891,266.371 74.197,269.200 73.370 C 276.496 71.235,278.060 70.626,281.555 68.556 C 285.230 66.379,294.400 57.950,294.400 56.748 C 294.400 56.526,294.918 55.592,295.550 54.672 C 299.901 48.347,297.259 45.484,291.800 50.608 C 285.556 56.469,280.367 58.194,269.000 58.188 C 262.675 58.184,261.585 58.124,256.849 57.511 L 253.899 57.130 251.910 59.065 C 249.354 61.551,241.930 69.603,239.600 72.416 C 238.610 73.611,236.900 75.602,235.800 76.840 C 234.700 78.077,232.900 80.215,231.800 81.589 C 225.602 89.332,221.066 91.487,208.064 92.865 C 195.837 94.161,200.154 87.308,228.969 59.682 C 234.829 54.064,234.826 54.075,230.342 55.156 C 219.854 57.684,212.594 63.063,205.853 73.300 C 201.901 79.302,200.879 79.571,202.221 74.258 C 203.508 69.158,207.749 59.679,209.660 57.628 C 210.067 57.191,210.400 56.724,210.400 56.590 C 210.400 56.316,213.575 52.570,216.600 49.274 C 223.046 42.251,240.648 31.678,253.368 27.189 C 255.213 26.538,257.595 25.623,258.661 25.157 C 259.728 24.691,261.680 23.984,263.000 23.586 L 265.400 22.861 262.200 22.876 C 260.440 22.884,256.930 23.226,254.400 23.635 M275.600 38.153 C 273.730 38.421,271.930 38.753,271.600 38.889 C 271.270 39.026,270.280 39.256,269.400 39.400 C 261.023 40.772,247.304 48.328,237.020 57.232 C 230.732 62.677,220.572 72.731,214.619 79.400 C 212.458 81.820,210.087 84.395,209.350 85.121 C 207.858 86.591,206.000 88.931,206.000 89.341 C 206.000 89.712,210.157 89.216,212.800 88.530 C 220.514 86.527,222.572 85.923,223.179 85.489 C 223.993 84.905,227.710 80.878,231.014 77.000 C 232.326 75.460,233.490 74.110,233.600 74.000 C 234.328 73.272,237.726 69.404,239.400 67.399 C 243.229 62.811,249.426 56.684,253.400 53.559 C 255.600 51.828,257.590 50.255,257.823 50.062 C 259.764 48.455,267.670 45.468,272.720 44.434 C 275.837 43.796,289.147 43.886,293.045 44.572 C 303.290 46.375,306.115 48.405,323.200 66.238 C 337.318 80.973,348.104 86.905,367.800 90.764 C 375.237 92.221,376.348 92.155,371.400 90.551 C 348.331 83.074,333.005 73.639,324.047 61.400 C 323.564 60.740,320.071 56.991,316.284 53.070 C 307.260 43.723,304.918 42.265,293.378 38.809 C 290.217 37.862,280.200 37.493,275.600 38.153 M161.200 126.813 C 161.200 127.040,160.943 127.840,160.630 128.590 C 160.316 129.341,159.941 130.889,159.796 132.031 C 158.932 138.840,155.298 144.820,149.387 149.157 C 141.542 154.915,146.054 141.503,155.167 131.979 C 156.395 130.695,158.077 128.914,158.905 128.022 C 160.384 126.428,161.200 125.998,161.200 126.813 M237.696 128.246 C 232.792 130.040,231.358 136.110,234.021 143.796 C 234.753 145.910,235.556 149.547,236.026 152.887 C 237.453 163.021,237.659 163.210,249.400 165.198 C 275.967 169.695,279.119 195.236,258.056 235.334 C 253.890 243.265,248.890 251.940,246.627 255.165 C 245.918 256.174,243.449 259.790,241.140 263.200 C 234.094 273.603,227.524 282.498,222.526 288.400 C 221.129 290.050,219.004 292.570,217.803 294.000 C 214.016 298.511,208.322 305.176,204.853 309.158 C 203.013 311.271,200.566 314.080,199.416 315.400 C 195.565 319.820,192.721 323.533,188.533 329.604 C 177.558 345.514,173.819 368.941,179.666 385.166 C 180.922 388.653,184.982 396.639,185.123 395.903 C 185.193 395.539,185.078 394.917,184.868 394.521 C 184.657 394.124,184.278 392.360,184.024 390.600 C 183.771 388.840,183.392 386.425,183.182 385.233 C 179.814 366.117,187.611 341.996,202.075 326.786 C 203.024 325.788,206.331 322.278,209.424 318.986 C 212.518 315.693,216.658 311.364,218.624 309.364 C 223.501 304.405,232.831 294.298,235.411 291.180 C 235.857 290.641,237.387 288.849,238.811 287.199 C 241.372 284.230,243.471 281.711,245.800 278.813 C 246.460 277.992,248.440 275.539,250.200 273.363 C 251.960 271.187,253.850 268.762,254.400 267.974 C 259.980 259.981,262.501 256.288,263.529 254.600 C 265.180 251.889,267.137 248.721,268.686 246.251 C 269.900 244.314,271.052 242.174,273.883 236.600 C 278.861 226.800,283.267 214.248,284.415 206.600 C 284.679 204.840,285.063 202.860,285.268 202.200 C 285.859 200.304,286.127 184.674,285.643 180.400 C 282.189 149.915,265.860 130.757,240.800 127.789 C 240.030 127.697,238.633 127.903,237.696 128.246 M299.600 137.128 C 299.600 137.749,299.943 139.864,300.362 141.828 C 305.468 165.754,300.776 194.962,286.903 225.600 C 286.455 226.590,285.401 228.930,284.560 230.800 C 274.322 253.575,255.467 285.046,246.426 294.451 C 246.081 294.809,244.810 296.313,243.600 297.795 C 242.390 299.276,240.590 301.426,239.600 302.574 C 238.610 303.721,236.900 305.789,235.800 307.170 C 234.700 308.551,233.290 310.247,232.666 310.940 C 232.043 311.633,230.878 313.010,230.078 314.000 C 229.279 314.990,227.989 316.521,227.212 317.403 C 226.435 318.284,224.990 319.985,224.000 321.182 C 223.010 322.379,221.410 324.223,220.445 325.279 C 219.480 326.336,218.818 327.200,218.973 327.200 C 219.486 327.200,222.941 324.720,226.725 321.636 C 228.774 319.966,231.294 317.913,232.325 317.074 C 233.356 316.235,234.650 315.148,235.200 314.659 C 235.750 314.170,238.360 311.986,241.000 309.806 C 243.640 307.626,246.614 305.112,247.608 304.221 C 248.602 303.329,250.656 301.520,252.173 300.200 C 253.689 298.880,255.589 297.170,256.395 296.400 C 257.201 295.630,258.656 294.267,259.630 293.372 C 263.654 289.670,274.138 278.004,278.602 272.259 C 287.427 260.903,299.794 242.649,304.522 234.000 C 305.184 232.790,306.483 230.450,307.409 228.800 C 308.335 227.150,309.447 225.080,309.878 224.200 C 310.310 223.320,311.836 220.260,313.269 217.400 C 314.702 214.540,316.113 211.570,316.404 210.800 C 316.696 210.030,317.099 209.183,317.300 208.919 C 317.785 208.282,319.723 203.219,321.479 198.000 C 327.662 179.625,326.727 165.389,318.511 152.800 C 312.641 143.806,299.600 132.999,299.600 137.128 M227.000 146.570 C 226.120 147.303,224.140 148.583,222.600 149.413 C 221.060 150.244,219.350 151.226,218.800 151.595 C 214.494 154.491,210.373 155.064,205.630 153.426 C 198.588 150.994,196.186 153.052,195.391 162.199 C 195.079 165.789,194.032 168.277,191.786 170.763 C 189.872 172.881,189.910 172.908,194.300 172.608 C 210.008 171.532,220.512 164.661,227.401 150.955 C 230.386 145.017,230.278 143.837,227.000 146.570 M231.200 150.587 C 231.200 153.880,223.450 164.923,219.102 167.824 C 218.166 168.449,217.040 169.272,216.600 169.654 C 212.454 173.249,199.977 176.762,189.900 177.172 C 188.188 177.241,189.364 180.789,191.797 182.895 C 195.302 185.929,207.791 189.528,216.000 189.870 C 229.723 190.440,239.188 185.059,231.259 181.195 C 225.803 178.536,225.860 174.424,231.354 174.386 C 236.896 174.347,241.200 172.122,241.200 169.295 C 241.200 168.358,241.104 168.313,239.627 168.549 C 234.655 169.344,232.016 163.858,232.003 152.700 C 232.001 151.169,231.827 150.000,231.600 150.000 C 231.380 150.000,231.200 150.264,231.200 150.587 M172.800 170.791 C 168.668 171.673,164.276 175.736,163.813 179.106 C 163.236 183.303,164.249 185.501,169.070 190.501 C 172.855 194.426,172.961 194.754,172.641 201.543 C 172.376 207.141,172.057 209.275,170.988 212.600 C 170.705 213.480,169.986 215.820,169.390 217.800 C 168.794 219.780,168.171 221.580,168.005 221.800 C 167.840 222.020,167.485 222.881,167.217 223.713 C 165.921 227.735,158.511 240.800,157.525 240.800 C 157.346 240.800,157.200 241.037,157.200 241.328 C 157.200 242.117,150.520 248.435,148.017 250.014 C 144.722 252.091,142.295 252.795,136.800 253.267 C 128.942 253.941,128.512 254.499,133.392 257.685 C 137.262 260.211,137.097 261.059,132.204 263.771 C 128.858 265.627,125.864 266.394,120.668 266.729 L 116.200 267.018 120.400 269.759 C 130.183 276.143,134.000 281.108,134.000 287.449 C 134.000 290.730,135.077 290.350,138.386 285.900 C 140.429 283.152,140.440 283.151,144.554 285.280 C 150.589 288.405,151.496 288.783,155.051 289.657 C 163.071 291.630,173.382 290.635,179.800 287.269 L 182.600 285.800 176.400 285.551 C 160.219 284.901,152.372 277.122,154.808 264.144 C 156.498 255.137,166.827 237.662,177.236 226.200 C 188.330 213.984,192.299 211.113,202.400 208.001 C 213.381 204.617,221.026 200.661,226.235 195.665 C 228.451 193.541,229.329 192.099,228.105 192.598 C 221.749 195.186,207.943 194.272,198.421 190.633 C 187.619 186.504,184.740 182.912,184.290 173.005 C 184.200 171.011,184.199 171.010,182.600 170.728 C 180.544 170.366,174.613 170.404,172.800 170.791 M158.470 187.000 C 157.948 190.965,157.491 194.485,157.014 198.200 C 156.102 205.310,155.633 208.019,154.768 211.191 C 150.317 227.511,141.146 237.757,121.400 248.474 C 117.303 250.697,106.284 256.110,102.400 257.807 C 100.970 258.431,99.530 259.160,99.200 259.426 C 98.870 259.692,97.140 260.619,95.356 261.488 C 88.220 264.959,79.501 271.250,74.408 276.600 C 71.261 279.906,70.000 281.378,70.000 281.746 C 70.000 281.954,69.525 282.748,68.944 283.510 C 67.654 285.200,64.730 290.463,64.954 290.688 C 65.044 290.777,65.811 289.832,66.658 288.587 C 69.685 284.143,76.901 276.000,77.813 276.000 C 78.444 276.000,78.898 278.268,78.440 279.133 C 77.233 281.415,75.682 298.491,76.742 297.836 C 76.930 297.720,77.200 296.507,77.343 295.141 C 77.486 293.775,78.251 290.844,79.043 288.629 C 79.836 286.413,81.187 282.620,82.047 280.200 C 82.907 277.780,83.540 275.379,83.454 274.864 C 83.044 272.417,85.976 268.886,90.200 266.739 C 91.532 266.062,93.475 264.979,99.400 261.613 C 101.600 260.362,105.110 258.551,107.200 257.587 C 109.290 256.624,111.450 255.539,112.000 255.178 C 112.550 254.817,114.260 253.921,115.800 253.187 C 117.340 252.453,118.870 251.630,119.200 251.357 C 119.530 251.084,121.600 249.932,123.800 248.796 C 150.848 234.831,159.393 220.878,158.708 191.800 C 158.635 188.720,158.528 186.560,158.470 187.000 " stroke="none" fill="#e6bc32" fill-rule="evenodd"/></svg>