<svg viewBox="0 0 500 240" xmlns="http://www.w3.org/2000/svg">
  <defs>
    <linearGradient gradientUnits="userSpaceOnUse" x1="236.371" y1="63.343" x2="236.371" y2="127.088" id="gradient-0" gradientTransform="matrix(0.848151, -0.529754, 0.259499, 0.415467, 33.291077, 169.398773)">
      <stop offset="0" style="stop-color: rgb(255, 255, 255); stop-opacity: 0;"></stop>
      <stop offset="1" style="stop-color: rgb(255, 255, 255);"></stop>
    </linearGradient>
  </defs>
  <polyline style="fill: none; stroke: rgb(255, 255, 255); stroke-linecap: round; stroke-linejoin: round; stroke-width: 2px;" points="270.811 177.571 326.274 125.748 280.515 144.981 226.263 141.25 204.985 164.297"></polyline>
  <line style="fill: none; stroke: rgb(255, 255, 255); stroke-linecap: round; stroke-linejoin: round; stroke-width: 2px;" x1="253.511" y1="160.122" x2="243.348" y2="172.144"></line>
  <polygon style="fill: none; stroke: rgb(255, 255, 255); stroke-linecap: round; stroke-linejoin: round; stroke-width: 2px;" points="245.428 134.954 288.386 102.703 309.235 101.684 314.557 113.966 277.487 135.708"></polygon>
  <polyline style="fill: none; stroke: rgb(255, 255, 255); stroke-linecap: round; stroke-linejoin: round; stroke-width: 2px;" points="277.408 135.537 320.867 121.909 332.401 106.626 324.11 96.72"></polyline>
  <line style="fill: none; stroke: rgb(255, 255, 255); stroke-linecap: round; stroke-linejoin: round; stroke-width: 2px;" x1="312.322" y1="109.623" x2="322.429" y2="103.951"></line>
  <polyline style="fill: none; stroke: rgb(255, 255, 255); stroke-linecap: round; stroke-linejoin: round; stroke-width: 2px;" points="332.858 99.201 342.48 95.518 347.292 71.819 334.507 52.868"></polyline>
  <polyline style="fill: none; stroke: rgb(255, 255, 255); stroke-linecap: round; stroke-linejoin: round; stroke-width: 2px;" points="308.41 102.562 327.943 89.549 333.662 68.515 317.97 50.781"></polyline>
  <polyline style="fill: none; stroke: rgb(255, 255, 255); stroke-linecap: round; stroke-linejoin: round; stroke-width: 2px;" points="299.469 102.731 314.4 84.764 317.826 69.539 302.337 59.19"></polyline>
  <polyline style="fill: none; stroke: rgb(255, 255, 255); stroke-linecap: round; stroke-linejoin: round; stroke-width: 2px;" points="288.895 103.415 288.976 103.743 304.025 85.545 299.823 71.129 288.258 68.575"></polyline>
  <polyline style="stroke: rgb(255, 255, 255); stroke-linecap: round; stroke-linejoin: round; stroke-width: 2px; fill: url(#gradient-0);" points="191.213 102.886 281.529 118.088 279.638 54.343"></polyline>
  <ellipse style="fill: none; stroke: rgb(255, 255, 255); stroke-linecap: round; stroke-linejoin: round; stroke-width: 2px;" cx="222.539" cy="50.551" rx="30" ry="30"></ellipse>
  <ellipse style="fill: none; stroke: rgb(255, 255, 255); stroke-linecap: round; stroke-linejoin: round; stroke-width: 2px;" cx="388" cy="41" rx="30" ry="30"></ellipse>
  <ellipse style="fill: none; stroke: rgb(255, 255, 255); stroke-linecap: round; stroke-linejoin: round; stroke-width: 2px;" cx="374" cy="196" rx="30" ry="30"></ellipse>
  <ellipse style="fill: none; stroke: rgb(255, 255, 255); stroke-linecap: round; stroke-linejoin: round; stroke-width: 2px;" cx="134.039" cy="152.7" rx="30" ry="30"></ellipse>
  <ellipse style="fill: none; stroke: rgb(255, 255, 255); stroke-linecap: round; stroke-linejoin: round; stroke-width: 2px;" cx="88.388" cy="32.454" rx="30" ry="30"></ellipse>
  <ellipse style="fill: none; stroke: rgb(255, 255, 255); stroke-linecap: round; stroke-linejoin: round; stroke-width: 2px;" cx="454.455" cy="129.659" rx="20" ry="20"></ellipse>
  <path style="fill: none; stroke: rgb(255, 255, 255); stroke-linecap: round; stroke-linejoin: round; stroke-width: 2px;" d="M 136.236 113.483 C 136.966 86.223 157.934 54.644 182.98 51.792"></path>
  <path style="fill: none; stroke: rgb(255, 255, 255); stroke-linecap: round; stroke-linejoin: round; stroke-width: 2px;" d="M 258.321 33.768 C 277.609 22.646 319.087 22.393 350.256 32.149"></path>
  <line style="fill: none; stroke: rgb(255, 255, 255); stroke-linecap: round; stroke-linejoin: round; stroke-width: 2px;" x1="384.863" y1="79.917" x2="380.558" y2="160.669"></line>
  <path style="fill: none; stroke: rgb(255, 255, 255); stroke-linecap: round; stroke-linejoin: round; stroke-width: 2px;" d="M 427.024 47.201 C 449.967 54.528 457.594 82.964 454.244 102.506"></path>
  <line style="fill: none; stroke: rgb(255, 255, 255); stroke-linecap: round; stroke-linejoin: round; stroke-width: 2px;" x1="337.469" y1="195.856" x2="172.544" y2="163.573"></line>
  <line style="fill: none; stroke: rgb(255, 255, 255); stroke-linecap: round; stroke-linejoin: round; stroke-width: 2px;" x1="199.267" y1="175.642" x2="144.913" y2="236.661"></line>
  <line style="fill: none; stroke: rgb(255, 255, 255); stroke-linecap: round; stroke-linejoin: round; stroke-width: 2px;" x1="237.012" y1="183.621" x2="194.746" y2="234.581"></line>
  <line style="fill: none; stroke: rgb(255, 255, 255); stroke-linecap: round; stroke-linejoin: round; stroke-width: 2px;" x1="265.136" y1="189.083" x2="232.29" y2="232.329"></line>
  <polyline style="fill: none; stroke: rgb(255, 255, 255); stroke-linecap: round; stroke-linejoin: round; stroke-width: 2px;" points="242.669 73.385 209.613 37.372 210.356 68.812"></polyline>
  <line style="fill: none; stroke: rgb(255, 255, 255); stroke-linecap: round; stroke-linejoin: round; stroke-width: 2px;" x1="232.977" y1="56.374" x2="232.224" y2="36.597"></line>
  <ellipse style="fill: none; stroke: rgb(255, 255, 255); stroke-linecap: round; stroke-linejoin: round; stroke-width: 2px;" cx="388" cy="41" rx="27.5" ry="7.5"></ellipse>
  <ellipse style="fill: none; stroke: rgb(255, 255, 255); stroke-linecap: round; stroke-linejoin: round; stroke-width: 2px;" cx="383.329" cy="-56.684" rx="27.5" ry="7.5" transform="matrix(0.500055, -0.865994, 0.865994, 0.500055, 245.403095, 401.30396)"></ellipse>
  <ellipse style="fill: none; stroke: rgb(255, 255, 255); stroke-linecap: round; stroke-linejoin: round; stroke-width: 2px;" cx="383.329" cy="-56.684" rx="27.5" ry="7.5" transform="matrix(0.499982, 0.866036, -0.866036, 0.499982, 147.253918, -262.634072)"></ellipse>
  <ellipse style="stroke: rgb(255, 255, 255); stroke-linecap: round; stroke-linejoin: round; stroke-width: 2px; fill: rgb(255, 255, 255);" cx="388" cy="41" rx="4" ry="4"></ellipse>
  <ellipse style="stroke: rgb(255, 255, 255); stroke-linecap: round; stroke-linejoin: round; stroke-width: 2px; fill: rgb(255, 255, 255);" cx="374" cy="173" rx="4" ry="4"></ellipse>
  <ellipse style="stroke: rgb(255, 255, 255); stroke-linecap: round; stroke-linejoin: round; stroke-width: 2px; fill: rgb(255, 255, 255);" cx="374" cy="219" rx="4" ry="4"></ellipse>
  <ellipse style="stroke: rgb(255, 255, 255); stroke-linecap: round; stroke-linejoin: round; stroke-width: 2px; fill: rgb(255, 255, 255);" cx="355" cy="184" rx="4" ry="4"></ellipse>
  <ellipse style="stroke: rgb(255, 255, 255); stroke-linecap: round; stroke-linejoin: round; stroke-width: 2px; fill: rgb(255, 255, 255);" cx="355" cy="207" rx="4" ry="4"></ellipse>
  <ellipse style="stroke: rgb(255, 255, 255); stroke-linecap: round; stroke-linejoin: round; stroke-width: 2px; fill: rgb(255, 255, 255);" cx="393" cy="184" rx="4" ry="4"></ellipse>
  <ellipse style="stroke: rgb(255, 255, 255); stroke-linecap: round; stroke-linejoin: round; stroke-width: 2px; fill: rgb(255, 255, 255);" cx="393" cy="208" rx="4" ry="4"></ellipse>
  <polygon style="fill: none; stroke: rgb(255, 255, 255); stroke-linecap: round; stroke-linejoin: round; stroke-width: 2px;" points="354.995 184.278 373.768 172.966 392.903 184.058 393.129 208.327 374.31 219.416 354.674 207.238"></polygon>
  <polygon style="fill: none; stroke: rgb(255, 255, 255); stroke-linecap: round; stroke-linejoin: round; stroke-width: 2px;" points="354.95 184.538 392.562 184.145 374.167 219.947"></polygon>
  <polyline style="fill: none; stroke: rgb(255, 255, 255); stroke-linecap: round; stroke-linejoin: round; stroke-width: 2px;" points="74.559 49.599 87.42 59.29 110.697 46.774 109.87 16.009 88.611 5.321 66.168 17.003 65.473 42.951 70.766 46.812 77.067 43.693 80.144 37.441 79.994 20.977"></polyline>
  <polyline style="fill: none; stroke: rgb(255, 255, 255); stroke-linecap: round; stroke-linejoin: round; stroke-width: 2px;" points="102.552 23.039 94.129 18.045 86.755 23.208 86.917 30.391 94.557 33.063 102.18 36.685 102.298 44.304 92.511 47.754 86.737 43.239"></polyline>
  <line style="fill: none; stroke: rgb(255, 255, 255); stroke-linecap: round; stroke-linejoin: round; stroke-width: 2px;" x1="117.491" y1="119.385" x2="99.946" y2="67.147"></line>
  <line style="fill: none; stroke: rgb(255, 255, 255); stroke-linecap: round; stroke-linejoin: round; stroke-width: 2px;" x1="125.702" y1="26.908" x2="189.158" y2="37.527"></line>
  <polygon style="fill: none; stroke: rgb(255, 255, 255); stroke-linecap: round; stroke-linejoin: round; stroke-width: 2px;" points="133.45 127.527 108.541 152.091 133.619 177.911 158.88 152.565"></polygon>
  <line style="fill: none; stroke: rgb(255, 255, 255); stroke-linecap: round; stroke-linejoin: round; stroke-width: 2px;" x1="127.127" y1="134.959" x2="146.674" y2="153.283"></line>
  <line style="fill: none; stroke: rgb(255, 255, 255); stroke-linecap: round; stroke-linejoin: round; stroke-width: 2px;" x1="136.305" y1="144.05" x2="136.474" y2="162.702"></line>
  <ellipse style="stroke: rgb(255, 255, 255); stroke-linecap: round; stroke-linejoin: round; stroke-width: 2px; fill: rgb(255, 255, 255);" cx="136.255" cy="143.376" rx="3" ry="3"></ellipse>
  <ellipse style="stroke: rgb(255, 255, 255); stroke-linecap: round; stroke-linejoin: round; stroke-width: 2px; fill: rgb(255, 255, 255);" cx="147.027" cy="152.767" rx="3" ry="3"></ellipse>
  <ellipse style="stroke: rgb(255, 255, 255); stroke-linecap: round; stroke-linejoin: round; stroke-width: 2px; fill: rgb(255, 255, 255);" cx="136.293" cy="161.128" rx="3" ry="3"></ellipse>
  <polyline style="fill: none; stroke: rgb(255, 255, 255); stroke-linecap: round; stroke-linejoin: round; stroke-width: 2px;" points="451.324 113.696 446.147 116.852 446.382 127.925 441.492 130.782 446.494 133.792 446.818 143.17 450.99 146.662"></polyline>
  <polyline style="fill: none; stroke: rgb(255, 255, 255); stroke-linecap: round; stroke-linejoin: round; stroke-width: 2px;" points="457.053 113.569 462.349 116.199 462.606 127.799 467.889 131.467 463.113 134.563 462.803 142.703 458.482 146.267"></polyline>
</svg>