<svg viewBox="0 0 500 265" xmlns="http://www.w3.org/2000/svg">
  <defs></defs>
  <path style="fill: none; stroke-linecap: round; stroke-linejoin: round; stroke: rgb(255, 255, 255); stroke-width: 2px;" d="M 222.614 18.102 L 251.728 2 L 278.191 16.775"></path>
  <path style="fill: none; stroke-linecap: round; stroke-linejoin: round; stroke: rgb(255, 255, 255); stroke-width: 2px;" d="M 212.564 22.534 L 238.923 29.833 L 240.452 22.534 L 251.555 16.053 C 251.555 16.053 262.756 22.194 262.756 22.364 C 262.756 22.534 263.655 29.821 263.655 29.821 L 285.816 21.694"></path>
  <path style="fill: none; stroke-linecap: round; stroke-linejoin: round; stroke: rgb(255, 255, 255); stroke-width: 2px;" d="M 226.938 6.982 L 199.06 25.152 L 243.414 37.651 L 251.568 46.492 L 260.86 37.792 L 300.881 25.289 L 277.622 6.301"></path>
  <path style="fill: none; stroke-linecap: round; stroke-linejoin: round; stroke: rgb(255, 255, 255); stroke-width: 2px;" d="M 206.478 33.127 L 198.015 49.484 L 229.497 65.711 L 240.078 116.748 L 262.296 117 L 271.518 65.379 L 305 49.013 L 292.995 33.51"></path>
  <path style="fill: none; stroke-linecap: round; stroke-linejoin: round; stroke: rgb(255, 255, 255); stroke-width: 2px;" d="M 219.319 40.685 L 239.65 46.691 L 238.301 57.472 L 217.72 45.879 L 219.319 40.685 Z"></path>
  <path style="fill: none; stroke-linecap: round; stroke-linejoin: round; stroke: rgb(255, 255, 255); stroke-width: 2px;" d="M 263.582 47.584 L 283.436 39.81 L 285.895 44.676 C 285.895 44.676 265.213 58.287 265.137 58.354 C 265.065 58.423 263.882 48.057 263.582 47.584 Z"></path>
  <path style="fill: none; stroke-linecap: round; stroke-linejoin: round; stroke: rgb(255, 255, 255); stroke-width: 2px;" d="M 242.223 83.32 L 239.393 70.596 L 262.623 70.585 L 259.405 83.589"></path>
  <path style="stroke-linecap: round; stroke-linejoin: round; stroke: rgb(255, 255, 255); fill: rgb(255, 255, 255); stroke-width: 2px;" d="M 232.538 106.071 L 217.336 96.792 L 213.005 71.91 L 217.444 64.317 L 213.088 71.914 L 213.869 77.693 L 227.149 84.432 L 232.538 106.071 Z"></path>
  <path style="stroke-linecap: round; stroke-linejoin: round; stroke: rgb(255, 255, 255); fill: rgb(255, 255, 255); stroke-width: 2px;" d="M 285.886 62.517 L 291.251 70.589 C 291.251 70.589 284.584 97.17 284.509 97.239 C 284.436 97.307 269.342 106.271 269.342 106.271 L 273.802 84.995 C 273.802 84.995 289.442 77.829 289.516 77.898 C 289.589 77.965 291.21 70.334 291.138 70.472 C 291.063 70.608 286.282 62.882 285.886 62.517 Z"></path>
  <path style="fill: rgb(216, 216, 216); stroke-linecap: round; stroke-linejoin: round; stroke: rgb(255, 255, 255); stroke-width: 2px;" d="M 251.165 111.152 L 251.111 90.458"></path>
  <path style="fill: rgb(216, 216, 216); stroke-linecap: round; stroke-linejoin: round; stroke: rgb(255, 255, 255); stroke-width: 2px;" d="M 243.487 95.1 L 243.809 106.043"></path>
  <path style="fill: rgb(216, 216, 216); stroke-linecap: round; stroke-linejoin: round; stroke: rgb(255, 255, 255); stroke-width: 2px;" d="M 258.832 94.804 L 258.582 106.205"></path>
  <path style="fill: none; stroke-linecap: round; stroke-linejoin: round; stroke: rgb(255, 255, 255); stroke-width: 2px;" d="M 176.866 165.798 L 175.713 164.828 L 147.825 130.822 L 175.851 97.252 L 143.321 72.153 L 65.124 119.673 L 83.747 128.937 L 129.623 112.639 L 141.301 121.822"></path>
  <path style="fill: none; stroke-linecap: round; stroke-linejoin: round; stroke: rgb(255, 255, 255); stroke-width: 2px;" d="M 246.143 152.456 L 242.717 152.129 C 242.717 152.129 246.755 152.171 246.552 151.959 C 246.351 151.749 236.126 152.335 236.126 152.335 L 268.84 152.152 C 268.84 152.152 292.032 179.719 292.234 179.719 C 292.436 179.719 333.016 133.627 333.419 132.993 C 333.823 132.356 313.494 109.417 313.494 109.417"></path>
  <path style="fill: none; stroke-linecap: round; stroke-linejoin: round; stroke: rgb(255, 255, 255); stroke-width: 2px;" d="M 204.566 150.525 L 193.799 137.837 L 213.61 119.065 L 221.975 129.982 L 281.777 129.163 L 289.617 118.374 C 289.617 118.374 306.842 135.196 306.036 135.41 C 305.229 135.62 282.822 160.174 282.822 160.174"></path>
  <path style="fill: none; stroke-linecap: round; stroke-linejoin: round; stroke: rgb(255, 255, 255); stroke-width: 2px;" d="M 222.849 145.764 L 228.501 137.417 C 228.501 137.417 272.508 136.892 272.911 136.892 C 273.314 136.892 277.952 146.873 277.952 146.873"></path>
  <path style="fill: none; stroke-linecap: round; stroke-linejoin: round; stroke: rgb(255, 255, 255); stroke-width: 2px;" d="M 225.139 107.972 L 232.862 122.472 C 232.862 122.472 270.69 122.529 270.893 122.529 C 271.094 122.529 277.025 106.644 277.025 106.644"></path>
  <path style="stroke-linecap: round; stroke-linejoin: round; stroke: rgb(255, 255, 255); fill: none; stroke-width: 2px;" d="M 148.444 131.4 L 165.918 153.308 L 106.906 183.497 L 89.084 173.894 L 70.143 176.14 L 148.444 131.4 Z"></path>
  <path style="fill: none; stroke-linejoin: round; stroke-linecap: round; stroke: rgb(255, 255, 255); stroke-width: 2px;" d="M 74.35 213.276 L 48.751 190.381 L 84.723 186.766 L 99.993 197.167 L 179.083 186.482 L 170.799 202.383 L 177.778 213.44 L 66.053 225.841 L 21.505 182.179 L 89.78 174.167 L 105.745 182.466 L 190.981 171.07"></path>
  <path style="stroke-linecap: round; stroke-linejoin: round; stroke: rgb(255, 255, 255); fill: none; stroke-width: 2px;" d="M 375.689 195.91 L 394.622 174.955 L 359.52 137.169 L 343.385 140.493 L 333.442 155.221 L 375.689 195.91 Z" transform="matrix(-1, 0, 0, -1, 728.063995, 333.07901)"></path>
  <path style="fill: none; stroke-linejoin: round; stroke-linecap: round; stroke: rgb(255, 255, 255); stroke-width: 2px;" d="M 363.508 195.782 L 332.563 220.677 L 362.162 223.087 L 379.092 213.975 L 458.617 223.409 L 450.332 207.509 L 460.86 193.739 L 359.049 183.412 L 304.754 233.095 L 366.067 238.521 L 382.355 229.473 L 467.5 238.501" transform="matrix(-0.949014, 0.315233, -0.315233, -0.949014, 819.070656, 289.456707)"></path>
  <path style="fill: none; stroke-linecap: round; stroke-linejoin: round; stroke: rgb(255, 255, 255); stroke-width: 2px;" d="M 438.046 75.06 L 437.769 90.191 L 386.575 144.947 L 414.595 178.517 L 382.072 203.616 L 303.901 156.096 L 321.058 144.748 L 370.159 160.124 L 381.722 151.027" transform="matrix(-1, 0, 0, -1, 741.946991, 278.675995)"></path>
  <path style="stroke: rgb(255, 255, 255); fill: none; stroke-linecap: round; stroke-linejoin: round; stroke-width: 2px;" d="M 184.11 208.711 L 179.25 202.525 L 193.917 182.895 L 202.691 184.718 L 193.1 200.054 L 184.11 208.711 Z"></path>
  <path style="fill: none; stroke: rgb(255, 255, 255); stroke-linecap: round; stroke-linejoin: round; stroke-width: 2px;" d="M 205.162 179.033 L 208.853 166.964 L 217.156 158.963 L 231.396 159.247"></path>
  <path style="fill: none; stroke: rgb(255, 255, 255); stroke-linecap: round; stroke-linejoin: round; stroke-width: 2px;" d="M 194.585 182.19 L 202.586 162.912 C 202.586 162.912 212.615 151.685 212.72 151.685 C 212.826 151.685 224.835 150.372 224.835 150.372"></path>
  <path style="fill: none; stroke: rgb(255, 255, 255); stroke-linecap: round; stroke-linejoin: round; stroke-width: 2px;" d="M 286.338 252.731 L 298.828 243.507 L 298.097 231.204 L 299.952 224.338 L 306.735 224.652 L 314.419 239.724 L 300.954 257.415 C 300.954 257.415 282.34 260.217 282.233 260.11 C 282.128 260.003 263.302 254.935 263.302 254.935" transform="matrix(0.969986, -0.24316, 0.24316, 0.969986, -50.229759, 77.509456)"></path>
  <path style="fill: none; stroke: rgb(255, 255, 255); stroke-linecap: round; stroke-linejoin: round; stroke-width: 2px;" d="M 292.144 242.594 L 284.202 249.515 L 273.879 253.543 L 258.958 249.895" transform="matrix(0.969986, -0.24316, 0.24316, 0.969986, -52.050015, 74.44849)"></path>
  <path d="M 293.377 204.051 Z M 227.162 203.815 C 227.162 203.815 214.748 249.468 264.501 249.867 C 280.11 244.066 291.612 229.846 293.354 212.7 C 293.473 211.515 293.51 210.305 293.535 209.094 C 293.543 208.774 293.585 208.464 293.585 208.146 C 293.585 206.763 293.499 205.402 293.379 204.051 C 280.234 255.703 222.088 235.473 227.162 203.815 Z" class="jsx-4131126525" style="stroke-linecap: round; stroke-linejoin: round; fill: rgb(255, 255, 255); stroke-width: 2px;"></path>
  <path d="M 252.884 186.87 C 252.884 186.87 206.566 173.961 207.277 224.38 C 209.652 230.47 213.338 235.969 218.073 240.484 C 218.271 240.674 218.477 240.852 218.676 241.037 C 220.015 242.266 221.432 243.42 222.911 244.478 C 223.141 244.643 223.358 244.823 223.587 244.983 C 225.154 246.051 226.784 247.018 228.473 247.88 C 228.965 248.133 229.468 248.364 229.965 248.597 C 231.419 249.279 232.909 249.884 234.429 250.405 C 234.802 250.533 235.159 250.691 235.538 250.811 C 237.359 251.366 239.213 251.804 241.091 252.121 C 241.659 252.221 242.233 252.304 242.809 252.383 C 244.757 252.664 246.721 252.816 248.691 252.839 C 248.766 252.839 248.839 252.852 248.913 252.852 C 250.398 252.852 251.866 252.774 253.309 252.63 C 201.337 240.257 221.093 182.246 252.884 186.872 L 252.884 186.87 Z" class="jsx-4131126525" style="stroke-linecap: round; stroke-linejoin: round; fill: rgb(255, 255, 255); stroke-width: 2px;"></path>
  <path d="M 270.939 210.784 C 270.939 210.784 281.899 164.663 232.57 166.722 C 216.028 173.244 204.318 189.312 204.318 208.141 C 204.334 210.169 204.486 212.194 204.775 214.197 C 215.158 162.021 274.303 178.917 270.939 210.784 Z" class="jsx-4131126525" style="stroke-linecap: round; stroke-linejoin: round; fill: rgb(255, 255, 255); stroke-width: 2px;"></path>
  <path d="M 247.256 230.628 C 247.256 230.628 293.656 236.676 290.752 192.638 C 284.435 175.685 268.131 163.586 248.951 163.586 C 246.236 163.599 243.527 163.853 240.857 164.353 C 292.562 170.689 279.122 231.079 247.256 230.628 Z" class="jsx-4131126525" style="stroke-linecap: round; stroke-linejoin: round; fill: rgb(255, 255, 255); stroke-width: 2px;"></path>
  <path d="M 261.832 208.146 C 261.832 217.753 251.414 223.756 243.079 218.954 C 239.209 216.724 236.828 212.603 236.828 208.146 C 236.828 198.538 247.247 192.535 255.581 197.338 C 259.45 199.566 261.832 203.686 261.832 208.146 Z" class="jsx-4131126525" style="stroke-linecap: round; stroke-linejoin: round; fill: rgb(255, 255, 255); stroke-width: 2px;"></path>
  <path style="stroke: rgb(255, 255, 255); stroke-linecap: round; stroke-linejoin: round; fill: none; stroke-width: 2px;" d="M 193.022 158.175 L 171.235 129.722 L 192.365 106.999"></path>
  <path style="fill: none; stroke: rgb(255, 255, 255); stroke-linecap: round; stroke-linejoin: round; stroke-width: 2px;" d="M 71.489 133.214 L 84.213 139.472 L 128.186 123.085 L 135.696 129.342 L 99.652 149.869 C 99.652 149.869 79.425 147.107 79.634 146.898 C 79.844 146.69 72.541 134.8 71.489 133.214 Z"></path>
  <path style="fill: none; stroke: rgb(255, 255, 255); stroke-linecap: round; stroke-linejoin: round; stroke-width: 2px;" d="M 373.607 127.121 L 421.746 143.683 L 433.686 136.088 L 422.279 153.014 L 380.442 155.621 L 363.655 136.122 L 373.607 127.121 Z"></path>
</svg>