<svg viewBox="0 0 500 200" xmlns="http://www.w3.org/2000/svg">
  <defs></defs>
  <polyline style="fill: none; stroke: rgb(255, 255, 255); stroke-linecap: round; stroke-linejoin: round; stroke-width: 3px;" points="242.373 121.053 235.733 134.207 356.626 137.267 393.951 20.175 303.225 22.171 293.898 36.807"></polyline>
  <polygon style="stroke-linecap: round; stroke-linejoin: round; fill: rgb(36, 93, 146); stroke-width: 3px;" points="281.962 127.395 295.447 127.934 298.935 116.598 286.535 116.19"></polygon>
  <polygon style="stroke-linecap: round; stroke-linejoin: round; fill: rgb(36, 93, 146); stroke-width: 3px;" points="310.388 123.557 323.873 124.096 327.361 112.76 314.961 112.352"></polygon>
  <polygon style="stroke-linecap: round; stroke-linejoin: round; fill: rgb(36, 93, 146); stroke-width: 3px;" points="294.251 77.639 307.736 78.178 311.224 66.842 298.824 66.434"></polygon>
  <polygon style="stroke-linecap: round; stroke-linejoin: round; fill: rgb(36, 93, 146); stroke-width: 3px;" points="313.404 59.608 326.889 60.147 330.377 48.811 317.977 48.403"></polygon>
  <polygon style="fill: none; stroke: rgb(255, 255, 255); stroke-linecap: round; stroke-linejoin: round; stroke-width: 3px;" points="346.394 126.595 378.677 28.935 365.267 28.474 332.02 126.403"></polygon>
  <path style="fill: none; stroke: rgb(255, 255, 255); stroke-linecap: round; stroke-linejoin: round; stroke-width: 3px;" d="M 38.668 6.061 L 62.393 51.964"></path>
  <path style="fill: none; stroke: rgb(255, 255, 255); stroke-linecap: round; stroke-linejoin: round; stroke-width: 3px;" d="M 83.466 6.063 L 114.034 68.391"></path>
  <path style="fill: none; stroke: rgb(255, 255, 255); stroke-linecap: round; stroke-linejoin: round; stroke-width: 3px;" d="M 46.222 120.292 L 8.138 61.299 L 85.747 61.975 L 93.176 76.536 L 262.582 76.162 L 225.405 91.808 L 214.644 124.904 L 70.268 120.625 L 42.388 77.552 L 74.328 77.681 L 84.597 95.253 L 190.509 95.877"></path>
  <path style="fill: none; stroke: rgb(255, 255, 255); stroke-linecap: round; stroke-linejoin: round; stroke-width: 3px;" d="M 224.658 118.069 L 235.214 98.647 L 264.37 88.125 L 299.256 88.093 L 317.608 109.799 C 317.122 110.042 300.944 89.402 299.57 88.604 C 298.196 87.806 273.567 88.146 273.567 88.146 L 267.03 104.403 C 267.03 104.403 256.515 111.566 256.218 111.566 C 255.921 111.566 225.026 119.005 224.658 118.069 Z"></path>
  <polyline style="fill: none; stroke: rgb(255, 255, 255); stroke-linecap: round; stroke-linejoin: round; stroke-width: 3px;" points="270.542 95.588 296.978 96.761 318.657 120.131"></polyline>
  <polyline style="fill: none; stroke: rgb(255, 255, 255); stroke-linecap: round; stroke-linejoin: round; stroke-width: 3px;" points="265.631 104.414 291.22 106.271 307.719 123.83"></polyline>
  <polyline style="fill: none; stroke: rgb(255, 255, 255); stroke-linecap: round; stroke-linejoin: round; stroke-width: 3px;" points="255.633 111.005 280.426 113.608 292.235 123.766"></polyline>
  <line style="fill: none; stroke: rgb(255, 255, 255); stroke-linecap: round; stroke-linejoin: round; stroke-width: 3px;" x1="123.785" y1="6.853" x2="156.312" y2="28.716"></line>
  <line style="fill: none; stroke: rgb(255, 255, 255); stroke-linecap: round; stroke-linejoin: round; stroke-width: 3px;" x1="160.6" y1="7.406" x2="207.761" y2="37.046"></line>
  <polyline style="fill: none; stroke: rgb(255, 255, 255); stroke-linecap: round; stroke-linejoin: round; stroke-width: 3px;" points="165.044 69.264 137.689 35.239 187.685 34.793 198.394 44.387 282.812 42.489 258.468 52.955 246.221 69.827"></polyline>
  <polyline style="fill: none; stroke: rgb(255, 255, 255); stroke-linecap: round; stroke-linejoin: round; stroke-width: 3px;" points="177.038 64.543 159.05 42.941 180.438 43.025 192.483 53.311 240.374 53.448"></polyline>
  <polygon style="fill: none; stroke: rgb(255, 255, 255); stroke-linecap: round; stroke-linejoin: round; stroke-width: 3px;" points="256.013 66.479 264.327 56.914 289.304 48.013 286.827 57.712 276.716 64.109"></polygon>
  <polyline style="fill: none; stroke: rgb(255, 255, 255); stroke-linecap: round; stroke-linejoin: round; stroke-width: 3px;" points="288.041 48.375 306.122 43.857 321.43 55.494"></polyline>
  <polyline style="fill: none; stroke: rgb(255, 255, 255); stroke-linecap: round; stroke-linejoin: round; stroke-width: 3px;" points="287.508 53.13 307.213 51.469 322.234 66.186"></polyline>
  <polyline style="fill: none; stroke: rgb(255, 255, 255); stroke-linecap: round; stroke-linejoin: round; stroke-width: 3px;" points="286.161 57.25 304.454 58.335 314.529 66.549"></polyline>
  <polyline style="fill: none; stroke: rgb(255, 255, 255); stroke-linecap: round; stroke-linejoin: round; stroke-width: 3px;" points="275.281 64.067 289.618 72.285 302.859 71.569"></polyline>
  <polygon style="fill: none; stroke: rgb(255, 255, 255); stroke-linecap: round; stroke-linejoin: round; stroke-width: 3px;" points="241.25 140.371 350.46 144.505 334.158 190.637 221 185.145"></polygon>
  <polygon style="fill: none; stroke: rgb(255, 255, 255); stroke-linecap: round; stroke-linejoin: round; stroke-width: 3px;" points="256.491 149.709 280.815 146.584 312.104 154.311 319.275 164.857 312.439 174.817 279.607 174.667 246.717 166.287"></polygon>
  <path style="fill: none; stroke: rgb(255, 255, 255); stroke-linecap: round; stroke-linejoin: round; stroke-width: 3px;" d="M 374.418 79.016 L 399.755 80.648 L 424.027 98.685 L 489.181 98.786 L 423.867 98.306 L 407.604 151.733 L 368.622 176.513 L 316.702 169.083"></path>
</svg>