<svg viewBox="0 0 500 500" xmlns="http://www.w3.org/2000/svg">
  <defs></defs>
  <path style="fill: none; stroke: rgb(18, 31, 51); stroke-width: 4px; stroke-linecap: round; stroke-linejoin: round;" d="M 224.267 78.636 L 253.62 61.159 L 280.301 77.196"></path>
  <path style="fill: none; stroke: rgb(18, 31, 51); stroke-width: 4px; stroke-linecap: round; stroke-linejoin: round;" d="M 214.134 83.447 L 240.71 91.369 L 242.251 83.447 L 253.446 76.412 C 253.446 76.412 264.74 83.078 264.74 83.262 C 264.74 83.447 265.646 91.354 265.646 91.354 L 287.989 82.536"></path>
  <path style="fill: none; stroke: rgb(18, 31, 51); stroke-width: 4px; stroke-linecap: round; stroke-linejoin: round;" d="M 228.626 66.565 L 200.519 86.288 L 245.238 99.856 L 253.459 109.452 L 262.827 100.008 L 303.177 86.437 L 279.728 65.828"></path>
  <path style="fill: none; stroke: rgb(18, 31, 51); stroke-width: 4px; stroke-linecap: round; stroke-linejoin: round;" d="M 207.998 94.945 L 199.466 112.698 L 231.207 130.313 L 241.874 185.708 L 264.276 185.982 L 273.572 129.952 L 307.33 112.188 L 295.227 95.361"></path>
  <path style="fill: none; stroke: rgb(18, 31, 51); stroke-width: 4px; stroke-linecap: round; stroke-linejoin: round;" d="M 220.945 103.147 L 241.443 109.666 L 240.083 121.368 L 219.333 108.785 L 220.945 103.147 Z"></path>
  <path style="fill: none; stroke: rgb(18, 31, 51); stroke-width: 4px; stroke-linecap: round; stroke-linejoin: round;" d="M 265.572 110.636 L 285.589 102.198 L 288.068 107.481 C 288.068 107.481 267.215 122.253 267.14 122.327 C 267.067 122.401 265.874 111.15 265.572 110.636 Z"></path>
  <path style="fill: none; stroke: rgb(18, 31, 51); stroke-width: 4px; stroke-linecap: round; stroke-linejoin: round;" d="M 244.038 149.424 L 241.184 135.615 L 264.605 135.602 L 261.36 149.717"></path>
  <path style="stroke: rgb(18, 31, 51); stroke-width: 4px; fill: rgb(18, 31, 51); stroke-linecap: round; stroke-linejoin: round;" d="M 234.273 174.12 L 218.946 164.048 L 214.578 137.041 L 219.056 128.799 L 214.662 137.045 L 215.451 143.317 L 228.839 150.631 L 234.273 174.12 Z"></path>
  <path style="stroke: rgb(18, 31, 51); stroke-width: 4px; fill: rgb(18, 31, 51); stroke-linecap: round; stroke-linejoin: round;" d="M 288.06 126.845 L 293.469 135.608 C 293.469 135.608 286.746 164.457 286.672 164.533 C 286.598 164.606 271.378 174.336 271.378 174.336 L 275.876 151.243 C 275.876 151.243 291.644 143.465 291.718 143.539 C 291.792 143.612 293.427 135.33 293.354 135.479 C 293.279 135.627 288.458 127.241 288.06 126.845 Z"></path>
  <path style="fill: rgb(216, 216, 216); stroke: rgb(0, 0, 0); stroke-linecap: round; stroke-linejoin: round; stroke-width: 4px;" d="M 253.053 179.634 L 252.998 157.173"></path>
  <path style="fill: rgb(216, 216, 216); stroke: rgb(18, 31, 51); stroke-linecap: round; stroke-linejoin: round; stroke-width: 4px;" d="M 245.312 162.211 L 245.636 174.089"></path>
  <path style="fill: rgb(216, 216, 216); stroke: rgb(18, 31, 51); stroke-linecap: round; stroke-linejoin: round; stroke-width: 4px;" d="M 260.783 161.889 L 260.531 174.266"></path>
  <path style="fill: none; stroke: rgb(18, 31, 51); stroke-linecap: round; stroke-linejoin: round; stroke-width: 4px;" d="M 253.4 417.145 L 255.534 343.451"></path>
  <path style="fill: none; stroke: rgb(18, 31, 51); stroke-linecap: round; stroke-linejoin: round; stroke-width: 4px;" d="M 200.776 416.487 L 221.41 397.011 L 222.673 343.778"></path>
  <path style="fill: none; stroke: rgb(18, 31, 51); stroke-linecap: round; stroke-linejoin: round; stroke-width: 4px;" d="M 286.763 343.166 L 286.125 397.981 C 286.125 397.981 308.065 418.111 308.269 418.111"></path>
  <path style="fill: none; stroke: rgb(18, 31, 51); stroke-linecap: round; stroke-linejoin: round; stroke-width: 4px;" d="M 199.05 372.215 L 198.809 285.507 L 148.863 220.278 L 177.12 186.433 L 144.322 161.127 L 114.741 176.138"></path>
  <path style="fill: none; stroke: rgb(18, 31, 51); stroke-linecap: round; stroke-linejoin: round; stroke-width: 4px;" d="M 309.956 376.689 L 310.294 284.23 L 358.432 225.822 L 319.325 177.834 C 319.325 177.834 354.411 159.549 354.005 159.764 C 353.598 159.978 383.694 182.256 383.694 182.256"></path>
  <path style="stroke: rgb(18, 31, 51); stroke-linecap: round; fill: none; stroke-linejoin: round; stroke-width: 4px;" d="M 235.216 329.508 C 235.216 329.508 272.847 329.383 273.05 329.383 C 273.254 329.383 288.694 296.365 289.1 296.365 C 289.507 296.365 269.526 264.99 269.324 264.56 C 269.121 264.133 236.795 264.646 236.795 264.646 C 236.795 264.646 215.399 296.416 216.416 296.416 C 217.434 296.416 234.136 328.111 235.216 329.508 Z"></path>
  <path style="fill: none; stroke: rgb(18, 31, 51); stroke-linecap: round; stroke-linejoin: round; stroke-width: 4px;" d="M 191.579 201.096 L 169.244 222.344 C 169.244 222.344 212.727 271.376 212.523 271.162 C 212.32 270.95 233.323 245.194 233.323 245.194 L 272.77 245.198 C 272.77 245.198 293.624 271.221 293.827 271.221 C 294.031 271.221 335.576 223.107 335.983 222.466 C 336.39 221.825 315.894 198.698 315.894 198.698"></path>
  <path style="fill: none; stroke: rgb(18, 31, 51); stroke-linecap: round; stroke-linejoin: round; stroke-width: 4px;" d="M 218.572 244.138 L 196.669 220.392 L 216.643 201.466 L 225.076 212.472 L 285.369 211.646 L 293.275 200.769 C 293.275 200.769 310.642 217.73 309.829 217.944 C 309.015 218.157 286.423 242.913 286.423 242.913"></path>
  <path style="fill: none; stroke: rgb(18, 31, 51); stroke-linecap: round; stroke-linejoin: round; stroke-width: 4px;" d="M 225.008 232.651 L 231.885 221.544 C 231.885 221.544 276.254 221.015 276.66 221.015 C 277.067 221.015 281.743 231.077 281.743 231.077"></path>
  <path style="fill: none; stroke: rgb(18, 31, 51); stroke-linecap: round; stroke-linejoin: round; stroke-width: 4px;" d="M 227.271 186.732 L 235.058 201.351 C 235.058 201.351 273.197 201.409 273.402 201.409 C 273.604 201.409 279.584 185.393 279.584 185.393"></path>
  <path style="stroke: rgb(18, 31, 51); stroke-linecap: round; stroke-linejoin: round; fill: rgb(18, 31, 51); stroke-width: 4px;" d="M 149.488 220.861 L 165.774 243.52 L 132.313 321.101 L 122.349 308.673 L 149.488 220.861 Z"></path>
  <path style="fill: none; stroke-linecap: round; stroke-linejoin: round; stroke-width: 4px; stroke: rgb(18, 31, 51);" d="M 136.598 363.554 L 137.902 332.065 L 121.19 309.938 L 108.956 166.209 L 87.066 165.578"></path>
  <path style="fill: none; stroke-linecap: round; stroke-linejoin: round; stroke-width: 4px; stroke: rgb(18, 31, 51);" d="M 94.759 222.94 L 105.582 320.404 L 120.729 337.198 L 120.096 378.063 L 80.955 339.779 L 51.708 132.476 L 72.628 163.582"></path>
  <path style="fill: rgb(18, 31, 51); stroke: rgb(18, 31, 51); stroke-linecap: round; stroke-width: 4px;" d="M 94.009 152.791 L 75.542 143.171 L 70.689 115.754 L 79.192 98.961 L 92.883 93.965 L 76.76 96.56 C 76.76 96.56 68.53 114.203 68.326 113.988 C 68.124 113.773 74.764 141.614 74.764 141.614 C 74.764 141.614 61.417 111.142 61.214 111.142 C 61.01 111.142 69.418 91.223 69.418 91.223 L 92.417 89.523 L 67.599 88.339 L 58.353 108.123 L 72.406 137.257 L 53.843 107.314 L 61.545 80.292 C 61.545 80.292 79.566 82.978 79.362 82.978 C 79.16 82.978 59.389 78.168 59.389 78.168 L 51.218 106.753 L 73.825 141.792"></path>
  <path style="fill: rgb(18, 31, 51); stroke: rgb(18, 31, 51); stroke-width: 4px; stroke-linecap: round; stroke-linejoin: round;" d="M 358.468 227.769 L 383.266 313.484 L 374.153 325.032 L 342.292 248.937 L 358.468 227.769 Z"></path>
  <path style="fill: none; stroke: rgb(18, 31, 51); stroke-width: 4px; stroke-linecap: round; stroke-linejoin: round;" d="M 370.283 360.065 L 369.599 331.484 L 384.142 312.862 L 390.303 165.392 L 411.655 165.809"></path>
  <path style="fill: none; stroke: rgb(18, 31, 51); stroke-width: 4px; stroke-linecap: round; stroke-linejoin: round;" d="M 409.56 212.099 L 403.526 329.701 L 386.877 346.018 L 387.148 381.515 L 430.068 334.383 L 442.447 127.575 L 426.247 162.133"></path>
  <path style="fill: rgb(216, 216, 216); stroke: rgb(18, 31, 51); stroke-width: 4px; stroke-linecap: round; stroke-linejoin: round;" d="M 397.552 150.912 L 419.9 143.812 C 419.9 143.812 429.486 106.537 429.282 106.323 C 429.08 106.108 412.766 88.759 412.563 88.759 C 412.359 88.759 398.224 99.196 398.224 99.196 L 412.624 84.981 L 429.477 101.652 L 419.439 143.109 C 419.439 143.109 434.979 96.066 434.777 95.424 C 434.572 94.78 415.267 73.714 415.267 73.714 C 415.267 73.714 399.731 88.686 400.136 87.83 C 400.542 86.975 417.19 73.566 417.19 73.566 L 436.427 93.992 L 421.384 141.785 C 421.384 141.785 444.023 94.143 444.227 93.716 C 444.43 93.288 422.67 64.152 422.67 64.152 L 400.61 76.486 L 425.401 65.734 L 442.343 93.866 L 420.424 145.05"></path>
  <path style="fill: none; stroke-linejoin: round; stroke-width: 4px; stroke: rgb(18, 31, 51); stroke-linecap: round;" d="M 56.541 204.562 L 47.124 210.789 L 59.588 226.108"></path>
  <path style="fill: none; stroke-linejoin: round; stroke-width: 4px; stroke: rgb(18, 31, 51); stroke-linecap: round;" d="M 442.405 212.618 C 442.405 212.618 450.547 219.857 450.343 219.857 C 450.141 219.857 440.817 231.626 440.817 231.626"></path>
  <path style="fill: none; stroke: rgb(18, 31, 51); stroke-linejoin: round; stroke-linecap: round; stroke-width: 4px;" d="M 117.297 207.395 L 133.877 200.89 L 143.487 213.672"></path>
  <path style="fill: none; stroke: rgb(18, 31, 51); stroke-linejoin: round; stroke-linecap: round; stroke-width: 4px;" d="M 382.918 211.792 L 365.566 206.777 L 361.038 218.601"></path>
  <ellipse style="fill: none; stroke: rgb(18, 31, 51); stroke-width: 5px; stroke-linecap: round; stroke-linejoin: round;" cx="132.099" cy="107.406" rx="31.872" ry="34.476"></ellipse>
  <ellipse style="fill: none; stroke: rgb(18, 31, 51); stroke-width: 5px; stroke-linecap: round; stroke-linejoin: round;" cx="355.851" cy="105.359" rx="32.066" ry="33.364"></ellipse>
  <path style="fill: none; stroke: rgb(18, 31, 51); stroke-width: 5px; stroke-linecap: round; stroke-linejoin: round;" d="M 122.997 129.571 L 131.425 136.311 L 153.554 119.971 L 154.011 93.739 L 132.175 78.609 C 132.175 78.609 108.733 92.338 108.897 92.338 C 109.059 92.338 108.245 117.484 108.245 117.484 C 108.141 117.629 114.526 123.538 116.327 124.398 C 120.146 124.556 122.522 118.943 123.342 115.468 C 123.84 113.913 123.781 95.213 123.647 94.885"></path>
  <path style="fill: none; stroke-width: 4px; stroke-linecap: round; stroke-linejoin: round; stroke: rgb(18, 31, 51);" d="M 145.18 99.581 C 144.769 93.874 134.727 93.297 132.986 96.203 C 131.247 99.108 130.182 105.469 132.516 107.073 C 134.403 108.37 141.702 105.362 144.454 107.527 C 146.894 109.444 145.697 115.121 143.789 118.193 C 141.879 121.265 130.055 121.636 131.579 114.779"></path>
  <path style="fill: none; stroke: rgb(18, 31, 51); stroke-width: 4px; stroke-linecap: round; stroke-linejoin: round;" d="M 377.217 130.226 L 343.376 91.883 L 343.475 117.97"></path>
  <path style="fill: none; stroke: rgb(18, 31, 51); stroke-width: 4px; stroke-linecap: round; stroke-linejoin: round;" d="M 365.575 109.155 L 365.428 91.722"></path>
  <ellipse style="stroke: rgb(18, 31, 51); fill: none; stroke-miterlimit: 2; stroke-width: 2px;" cx="252.761" cy="296.048" rx="28.438" ry="7.919"></ellipse>
  <ellipse style="stroke: rgb(18, 31, 51); fill: none; stroke-miterlimit: 2; stroke-width: 2px;" cx="253.376" cy="286.057" rx="29.729" ry="7.77" transform="matrix(0.484047, 0.875042, -0.883692, 0.46841, 383.838848, -58.635929)"></ellipse>
  <ellipse style="stroke: rgb(18, 31, 51); fill: none; stroke-miterlimit: 2; stroke-width: 2px;" cx="254.491" cy="286.034" rx="29.583" ry="7.892" transform="matrix(0.472671, -0.881239, 0.860419, 0.511487, -114.488662, 373.896322)"></ellipse>
  <ellipse style="stroke-width: 2px; stroke: rgb(18, 31, 51); fill: rgb(18, 31, 51);" cx="252.442" cy="295.776" rx="4.799" ry="4.989"></ellipse>
</svg>