<svg viewBox="0 0 700 150" width="700px" height="150px" xmlns="http://www.w3.org/2000/svg">
  <defs></defs>
  <path style="fill: none; stroke: rgb(21, 44, 66); stroke-linecap: round; stroke-linejoin: round; stroke-width: 7px;" d="M 18.446 35.022 L 7.412 22.092 L 20.443 10.08 L 91.041 9.953 C 91.041 9.953 102.035 20.161 101.773 20.685 C 101.511 21.209 90.779 32.987 90.517 32.726"></path>
  <path style="fill: none; stroke: rgb(21, 44, 66); stroke-linecap: round; stroke-linejoin: round; stroke-width: 7px;" d="M 21.722 23.368 C 21.722 23.368 53.888 23.15 54.15 23.412 C 54.412 23.674 56.09 128.536 56.09 128.536 L 92.761 128.643"></path>
  <path style="fill: none; stroke: rgb(21, 44, 66); stroke-linecap: round; stroke-linejoin: round; stroke-width: 7px;" d="M 99.713 118.102 L 106.925 128.625 C 106.925 128.625 98.524 139.88 98.001 139.88 C 97.478 139.88 21.216 139.905 21.216 139.905 L 12.174 129.281 L 20.12 118.895"></path>
  <path style="fill: none; stroke: rgb(21, 44, 66); stroke-linecap: round; stroke-linejoin: round; stroke-width: 7px;" d="M 119.434 139.828 L 118.02 10.279 L 164.914 10.452 L 188.061 43.789 L 163.467 74.634"></path>
  <path style="fill: none; stroke: rgb(21, 44, 66); stroke-linecap: round; stroke-linejoin: round; stroke-width: 7px;" d="M 127.343 20.045 L 127.804 73.784 L 152.994 73.862 L 178.537 139.552"></path>
  <path style="fill: none; stroke: rgb(21, 44, 66); stroke-linecap: round; stroke-linejoin: round; stroke-width: 7px;" d="M 204.202 44.224 L 230.296 10.528 L 253.898 46.073 C 253.898 46.073 254.455 117.878 254.455 118.14 C 254.455 118.402 232.44 141.464 232.179 141.464 C 231.918 141.464 205.062 112.626 205.062 112.626 L 204.405 63.227"></path>
  <path style="fill: none; stroke: rgb(21, 44, 66); stroke-linecap: round; stroke-linejoin: round; stroke-width: 7px;" d="M 246.302 69.349 L 246.271 49.685 L 230.043 25.463 L 213.158 47.466 L 214.34 109.347 L 232.22 130.036 L 246.742 113.696 L 246.355 84.185"></path>
  <path style="fill: none; stroke: rgb(21, 44, 66); stroke-linecap: round; stroke-linejoin: round; stroke-width: 7px;" d="M 268.36 141.29 L 267.141 11.592 L 327.14 126.46"></path>
  <path style="fill: none; stroke: rgb(21, 44, 66); stroke-linecap: round; stroke-linejoin: round; stroke-width: 7px;" d="M 283.758 24.982 L 344.905 140.168 L 345.203 13.314"></path>
  <path style="fill: none; stroke: rgb(21, 44, 66); stroke-linecap: round; stroke-linejoin: round; stroke-width: 7px;" d="M 431.033 43.061 L 403.083 15.017 L 373.306 40.019 L 372.444 108.491"></path>
  <path style="fill: none; stroke: rgb(21, 44, 66); stroke-linecap: round; stroke-linejoin: round; stroke-width: 7px;" d="M 383.468 51.382 L 382.067 115.724 L 405.77 141.315 L 429.107 113.743"></path>
  <path style="fill: none; stroke: rgb(21, 44, 66); stroke-linecap: round; stroke-linejoin: round; stroke-width: 7px;" d="M 452.066 14.636 L 452.931 120.388 L 471.975 142.328 L 503.933 142.278"></path>
  <path style="fill: none; stroke: rgb(21, 44, 66); stroke-linecap: round; stroke-linejoin: round; stroke-width: 7px;" d="M 463.655 90.227 C 463.655 90.227 464.001 116.985 464.029 116.886 C 464.057 116.787 477.911 132.84 477.911 132.84 L 517.468 133.196"></path>
  <path style="fill: none; stroke: rgb(21, 44, 66); stroke-linecap: round; stroke-linejoin: round; stroke-width: 7px;" d="M 528.634 142.25 C 528.634 142.25 563.919 25.763 563.395 25.763"></path>
  <path style="fill: none; stroke: rgb(21, 44, 66); stroke-linecap: round; stroke-linejoin: round; stroke-width: 7px;" d="M 581.816 94.5 L 551.315 95.358 L 574.838 15.05 L 603.628 140.667"></path>
  <path style="fill: none; stroke: rgb(21, 44, 66); stroke-linecap: round; stroke-linejoin: round; stroke-width: 7px;" d="M 623.169 40.724 L 625.272 142.069 L 671.992 111.295 L 671.834 66.802"></path>
  <path style="fill: none; stroke: rgb(21, 44, 66); stroke-linecap: round; stroke-linejoin: round; stroke-width: 7px;" d="M 634.206 120.22 L 631.717 12.693 C 631.717 12.693 682.662 57.258 682.138 57.52 C 681.614 57.782 682.463 100.331 682.725 100.592"></path>
</svg>