<svg viewBox="0 0 700 150" width="700px" height="150px" xmlns="http://www.w3.org/2000/svg">
  <defs></defs>
  <path style="fill: none; stroke-width: 7px; stroke: rgb(255, 255, 255); stroke-linejoin: bevel; stroke-linecap: round;" d="M 25 40 L 15 25 L 25 10 L 96 10 C 96 10 105 24 105 25 C 105 25 95 40 95 40"></path>
  <path style="fill: none; stroke-width: 7px; stroke: rgb(255, 255, 255); stroke-linejoin: bevel; stroke-linecap: round;" d="M 50 64 C 50 64 50 44 50 44 C 50 44 34.8 24 34.8 24 L 85 24 L 65 44 L 65 64 L 50 79 L 50 105 L 35 124 L 85 125 L 65 104 L 65 79"></path>
  <path style="fill: none; stroke-width: 7px; stroke: rgb(255, 255, 255); stroke-linejoin: bevel; stroke-linecap: round;" d="M 95 110 L 105 125 C 105 125 95 140 95 140 C 95 140 25.004 140 25.004 140 L 15 125 L 25 110"></path>
  <path style="fill: none; stroke-width: 7px; stroke: rgb(255, 255, 255); stroke-linejoin: bevel; stroke-linecap: round;" d="M 135 90 L 135 125 L 120.9 140 L 120 10 L 165 10 L 185 40 L 165 70"></path>
  <path style="fill: none; stroke-width: 7px; stroke: rgb(255, 255, 255); stroke-linejoin: bevel; stroke-linecap: round;" d="M 155 60 L 170 40 L 160 25 L 135 25 L 135 75 L 150 75 L 180 140 L 180 110 L 170 85"></path>
  <path style="fill: none; stroke-width: 7px; stroke: rgb(255, 255, 255); stroke-linejoin: bevel; stroke-linecap: round;" d="M 215 61.8 L 215 40 L 230 31 L 245 41 L 245 75 L 260 85 C 260 85 260 115 260 115 C 260 115 230 140 230 140 C 230 140 200 115 200 115 L 200 85"></path>
  <path style="fill: none; stroke-width: 7px; stroke: rgb(255, 255, 255); stroke-linejoin: bevel; stroke-linecap: round;" d="M 260 70 L 260 30 L 230 10 L 200 30 L 200 70 L 215 80 L 215 110 L 230 120 L 245 111 L 245 90"></path>
  <path style="fill: none; stroke-width: 7px; stroke: rgb(255, 255, 255); stroke-linejoin: bevel; stroke-linecap: round;" d="M 310.463 90 L 290.463 55 L 290.463 120 L 275 140.776 L 275.463 11 L 305.463 55 L 320.463 55 L 340.463 90 L 340.463 60"></path>
  <path style="fill: none; stroke-width: 7px; stroke: rgb(255, 255, 255); stroke-linejoin: bevel; stroke-linecap: round;" d="M 315.463 70 L 355 140 L 355 10 L 340.463 25 L 340.463 50"></path>
  <path style="fill: none; stroke-width: 7px; stroke: rgb(255, 255, 255); stroke-linejoin: bevel; stroke-linecap: round;" d="M 435 40 L 400 10 L 370 40 L 370 75.813"></path>
  <path style="fill: none; stroke-width: 7px; stroke: rgb(255, 255, 255); stroke-linejoin: bevel; stroke-linecap: round;" d="M 420 45 L 400 30 L 385 45 L 385 80 L 370 95 L 370 110 L 400 140 L 435 110 L 425 100 L 400 120 L 385 105"></path>
  <path style="fill: none; stroke-width: 7px; stroke: rgb(255, 255, 255); stroke-linejoin: bevel; stroke-linecap: round;" d="M 450 10 L 450 60 L 465 70 L 465 105 L 491 125"></path>
  <path style="fill: none; stroke-width: 7px; stroke: rgb(255, 255, 255); stroke-linejoin: bevel; stroke-linecap: round;" d="M 450 80 C 450 80 450 110 450 110 C 450 110 490 140 490 140 L 515 140"></path>
  <path style="fill: none; stroke-width: 7px; stroke: rgb(255, 255, 255); stroke-linejoin: bevel; stroke-linecap: round;" d="M 565 50 L 570 70 L 545 70 L 565 10 L 605 140"></path>
  <path style="fill: none; stroke-width: 7px; stroke: rgb(255, 255, 255); stroke-linejoin: bevel; stroke-linecap: round;" d="M 620 71.2 L 620 140 L 665 115 L 665 65 L 635 40"></path>
  <path style="fill: none; stroke-width: 7px; stroke: rgb(255, 255, 255); stroke-linejoin: bevel; stroke-linecap: round;" d="M 635 110 L 635 65 L 620 50.3 L 620 10 C 620 10 680 60 680 60 C 680 60 680 100 680 100"></path>
  <path style="fill: none; stroke-width: 7px; stroke: rgb(255, 255, 255); stroke-linejoin: bevel; stroke-linecap: round;" d="M 590 135 C 590 135 575 85 575 85 C 575 85 540 85 540 85 L 530 140 L 545 135 L 552.5 95"></path>
</svg>